<?xml version="1.0" standalone="no"?>
<!DOCTYPE svg PUBLIC "-//W3C//DTD SVG 20010904//EN"
 "http://www.w3.org/TR/2001/REC-SVG-20010904/DTD/svg10.dtd">
<svg version="1.0" xmlns="http://www.w3.org/2000/svg"
 width="225.000000pt" height="225.000000pt" viewBox="0 0 225.000000 225.000000"
 preserveAspectRatio="xMidYMid meet">

<g transform="translate(0.000000,225.000000) scale(0.100000,-0.100000)"
fill="#000000" stroke="none">
<path d="M1015 2241 c-47 -12 -91 -38 -131 -78 -38 -37 -94 -143 -94 -178 -1
-40 -29 -96 -128 -262 -103 -170 -111 -194 -92 -250 11 -31 57 -60 71 -46 5 5
27 53 49 107 40 100 96 205 127 241 54 62 118 70 241 31 l22 -7 0 219 c0 191
-2 221 -16 226 -9 3 -16 6 -17 5 -1 -1 -15 -4 -32 -8z"/>
<path d="M1090 2021 c0 -191 2 -231 15 -241 12 -10 18 -10 30 0 13 10 15 50
15 241 l0 229 -30 0 -30 0 0 -229z"/>
<path d="M1176 2243 c-3 -4 -6 -104 -6 -223 l0 -217 53 14 c28 8 77 12 107 10
49 -4 58 -8 91 -45 42 -48 94 -144 139 -257 46 -115 54 -122 95 -80 20 19 25
35 25 71 0 42 -11 66 -102 217 -75 125 -107 188 -119 236 -29 117 -84 200
-163 245 -41 24 -109 40 -120 29z"/>
<path d="M894 1790 c-52 -21 -125 -147 -154 -268 -8 -32 -7 -33 13 -27 80 25
124 16 179 -33 l41 -37 63 70 c35 39 64 76 64 83 0 6 9 12 20 12 11 0 20 -5
20 -11 0 -12 119 -149 130 -149 4 0 21 14 39 30 51 49 111 63 166 38 14 -6 27
-9 30 -6 7 7 -23 104 -53 167 -32 67 -100 141 -130 141 -24 0 -30 -28 -11 -47
15 -15 -33 -51 -79 -59 -45 -9 -66 5 -70 45 -3 28 -5 30 -24 20 -14 -8 -23 -8
-31 0 -18 18 -27 13 -27 -16 0 -46 -13 -57 -59 -50 -53 7 -94 33 -88 55 2 10
6 23 8 31 5 18 -18 23 -47 11z m68 -207 c19 -17 26 -83 8 -83 -5 0 -10 4 -10
8 0 4 -14 16 -31 26 -23 13 -41 17 -70 12 -46 -7 -50 4 -13 33 32 25 90 27
116 4z m428 4 c8 -7 21 -20 28 -29 13 -16 10 -17 -35 -11 -43 5 -53 2 -80 -21
-17 -14 -34 -26 -37 -26 -15 0 -4 62 14 80 23 23 86 27 110 7z"/>
<path d="M1047 1486 c-72 -83 -69 -87 70 -84 69 2 118 7 120 13 6 19 -97 125
-121 125 -14 0 -38 -19 -69 -54z"/>
<path d="M819 1443 c-47 -53 -52 -64 -60 -146 -4 -45 -17 -152 -28 -237 -12
-85 -21 -176 -21 -202 l0 -48 410 0 c347 0 411 2 416 14 3 8 1 48 -5 88 -6 40
-13 98 -16 128 -3 30 -12 104 -20 163 -8 59 -15 123 -15 143 0 27 -9 45 -41
79 -23 25 -48 45 -55 45 -8 0 -39 -22 -69 -50 l-55 -50 -141 0 -140 0 -53 50
c-29 28 -60 50 -68 50 -8 0 -25 -12 -39 -27z m516 -215 c3 -18 5 -64 3 -103
l-3 -70 -212 -3 -213 -2 0 105 0 105 210 0 209 0 6 -32z m78 -268 c4 0 7 -18
7 -40 l0 -40 -295 0 -295 0 0 38 c0 21 2 41 4 43 3 3 429 2 579 -1z"/>
<path d="M940 1150 l0 -80 40 0 40 0 0 80 0 80 -40 0 -40 0 0 -80z"/>
<path d="M1080 1150 l0 -81 43 3 42 3 0 75 0 75 -42 3 -43 3 0 -81z"/>
<path d="M1227 1223 c-4 -6 -2 -106 2 -145 1 -5 19 -8 41 -8 l40 0 0 80 0 80
-39 0 c-22 0 -42 -3 -44 -7z"/>
<path d="M693 1395 c-25 -18 -156 -262 -148 -276 4 -5 25 -19 48 -31 23 -12
36 -23 29 -25 -7 -3 -30 4 -52 15 -22 11 -42 17 -44 13 -8 -13 -26 -126 -26
-163 0 -25 5 -41 15 -44 24 -10 18 -60 -10 -82 -42 -33 -51 -65 -28 -104 10
-18 27 -34 36 -36 14 -3 17 5 17 47 0 41 3 51 20 56 35 11 50 -11 43 -61 -5
-36 -3 -44 10 -44 44 0 62 89 26 134 -27 35 -18 66 21 66 33 0 28 -22 65 282
34 284 34 292 -22 253z"/>
<path d="M1506 1401 c-5 -8 6 -113 48 -441 l12 -95 32 -3 c27 -3 32 -7 32 -28
0 -14 -9 -38 -21 -53 -24 -33 -20 -78 11 -106 28 -26 42 -10 34 40 -5 38 -4
44 15 50 35 11 54 -12 47 -56 -8 -50 10 -61 41 -25 32 37 29 67 -12 116 -40
48 -44 75 -14 83 20 5 21 10 15 61 -3 30 -11 76 -17 103 l-12 50 -35 -19 c-20
-10 -43 -18 -50 -18 -22 0 2 25 38 40 17 7 30 20 30 29 0 31 -126 253 -151
267 -29 16 -36 17 -43 5z"/>
<path d="M740 751 c0 -32 5 -43 29 -60 26 -19 44 -21 170 -21 l141 0 0 -69 c0
-62 2 -70 21 -76 11 -4 31 -4 45 -1 23 6 24 11 24 76 l0 70 139 0 c135 0 140
1 170 26 30 25 37 47 25 78 -5 14 -49 16 -385 16 l-379 0 0 -39z"/>
<path d="M680 686 c-10 -27 -56 -66 -78 -66 -9 0 -24 7 -33 16 -18 16 -20 14
-38 -30 -11 -25 -38 -97 -60 -159 -22 -61 -58 -156 -80 -209 -22 -54 -45 -123
-52 -153 -11 -49 -10 -58 4 -72 18 -18 30 -16 200 23 62 14 87 16 117 7 22 -5
42 -8 45 -5 3 3 5 109 6 236 0 127 4 269 8 316 8 82 2 120 -20 120 -5 0 -14
-11 -19 -24z m-11 -241 c-6 -82 -14 -125 -33 -170 -14 -33 -26 -77 -26 -98 0
-23 -4 -36 -10 -32 -17 10 -11 68 16 156 14 46 28 116 31 154 5 61 19 113 27
103 2 -1 0 -52 -5 -113z m-103 -53 c-2 -4 -7 -39 -10 -77 -5 -60 -12 -78 -46
-127 -22 -32 -43 -71 -46 -88 -4 -16 -11 -30 -17 -30 -18 0 1 80 31 128 17 26
37 76 46 111 9 36 21 70 27 78 12 14 23 18 15 5z"/>
<path d="M1523 688 c-6 -13 -7 -32 -2 -43 4 -11 8 -69 8 -130 1 -60 4 -193 8
-295 l6 -186 48 10 c40 8 64 5 158 -18 65 -17 121 -26 136 -22 47 12 36 64
-74 351 -34 88 -73 190 -87 227 l-25 66 -29 -16 c-37 -21 -74 -5 -97 43 -19
40 -35 45 -50 13z m78 -242 c5 -45 17 -108 28 -141 12 -34 20 -84 20 -115 l-1
-55 -10 45 c-6 25 -20 72 -33 106 -26 68 -48 297 -24 260 6 -11 16 -56 20
-100z m123 -141 c9 -35 29 -85 45 -111 17 -25 33 -60 36 -76 9 -39 -10 -60
-19 -21 -4 15 -25 54 -48 86 -32 47 -42 71 -49 125 -12 94 -11 101 5 79 8 -10
21 -47 30 -82z"/>
<path d="M756 632 c-3 -5 -6 -92 -6 -193 l-2 -184 166 -3 166 -2 0 84 c0 64
-4 87 -16 97 -13 11 -15 30 -12 108 l3 96 -147 3 c-80 1 -149 -1 -152 -6z
m180 -232 c53 0 54 0 54 -30 0 -35 -23 -50 -79 -50 -45 0 -71 20 -71 54 0 28
9 38 28 31 7 -3 38 -5 68 -5z"/>
<path d="M1190 542 c0 -71 -4 -104 -15 -118 -10 -13 -14 -44 -15 -96 l0 -78
171 0 171 0 -6 163 c-3 89 -5 177 -5 195 l-1 32 -150 0 -150 0 0 -98z m208
-167 c2 -14 -2 -33 -9 -41 -13 -16 -81 -19 -109 -4 -17 9 -35 54 -26 68 2 4
35 6 73 6 66 -2 68 -3 71 -29z"/>
<path d="M752 203 l3 -28 163 -3 162 -2 0 30 0 30 -166 0 -165 0 3 -27z"/>
<path d="M1162 203 l3 -28 165 0 165 0 3 28 3 27 -171 0 -171 0 3 -27z"/>
<path d="M744 136 c-3 -13 -4 -37 -2 -52 l3 -29 170 0 170 0 0 50 0 50 -167 3
-167 2 -7 -24z"/>
<path d="M1160 105 l0 -55 171 0 170 0 -3 53 -3 52 -167 3 -168 2 0 -55z"/>
</g>
</svg>
